<?xml version="1.0" encoding="UTF-8" standalone="no"?>
<!-- Created with Inkscape (http://www.inkscape.org/) -->

<svg
   width="127.99999"
   height="127.99999"
   viewBox="0 0 33.866664 33.866664"
   version="1.1"
   id="svg5"
   xml:space="preserve"
   xmlns="http://www.w3.org/2000/svg"
   xmlns:svg="http://www.w3.org/2000/svg"><defs
     id="defs2" /><path
     style="fill:#015657;fill-opacity:1;stroke:#015657;stroke-width:0.0404619;stroke-opacity:1"
     d="m 9.5085616,23.06332 v -1.112704 h 7.3033844 7.303385 v 1.112704 1.112704 H 16.811946 9.5085616 Z"
     id="path1024" /><path
     style="fill:#015657;fill-opacity:1;stroke:#015657;stroke-width:0.0404619;stroke-opacity:1"
     d="m 24.155793,20.716526 v -1.23409 h 2.46818 2.468179 v 1.23409 1.23409 h -2.468179 -2.46818 z"
     id="path1647" /><path
     style="fill:#015657;fill-opacity:1;stroke:#015657;stroke-width:0.0404619;stroke-opacity:1"
     d="m 29.132614,18.228115 v -1.254321 h 1.112705 1.112703 v 1.254321 1.254321 h -1.112703 -1.112705 z"
     id="path1649" /><path
     style="fill:#015657;fill-opacity:1;stroke:#015657;stroke-width:0.0404619;stroke-opacity:1"
     d="m 4.8149737,20.696295 v -1.213859 h 2.3467941 2.3467938 v 1.213859 1.213859 H 7.1617678 4.8149737 Z"
     id="path1651" /><path
     style="fill:#015657;fill-opacity:1;stroke:#015657;stroke-width:0.0404619;stroke-opacity:1"
     d="m 2.5491038,18.228115 v -1.254321 h 1.1127041 1.1127039 v 1.254321 1.254321 H 3.6618079 2.5491038 Z"
     id="path1653" /><path
     style="fill:#015657;fill-opacity:1;stroke:#015657;stroke-width:0.0404619;stroke-opacity:1"
     d="M 0.08092393,16.994025 V 9.8120265 H 1.2947829 2.5086418 v 7.1819985 7.181999 H 1.2947829 0.08092393 Z"
     id="path1655" /><path
     style="fill:#015657;fill-opacity:1;stroke:#015657;stroke-width:0.0404619;stroke-opacity:1"
     d="M 2.5491038,8.5577055 V 7.3438466 H 3.6618079 4.7745118 V 8.5577055 9.7715643 H 3.6618079 2.5491038 Z"
     id="path1657" /><path
     style="fill:#015657;fill-opacity:1;stroke:#015657;stroke-width:0.0404619;stroke-opacity:1"
     d="M 4.7745118,6.1906805 V 5.0779767 H 7.1415367 9.5085616 V 6.1906805 7.3033847 H 7.1415367 4.7745118 Z"
     id="path1659" /><path
     style="fill:#015657;fill-opacity:1;stroke:#015657;stroke-width:0.0404619;stroke-opacity:1"
     d="M 9.5085616,3.8236556 V 2.6097967 h 7.3033844 7.303385 V 3.8236556 5.0375145 H 16.811946 9.5085616 Z"
     id="path1661" /><path
     style="fill:#015657;fill-opacity:1;stroke:#015657;stroke-width:0.0404619;stroke-opacity:1"
     d="M 24.155793,6.1906805 V 5.0779767 h 2.46818 2.468179 v 1.1127038 1.1127042 h -2.468179 -2.46818 z"
     id="path1663" /><path
     style="fill:#015657;fill-opacity:1;stroke:#015657;stroke-width:0.0404619;stroke-opacity:1"
     d="M 29.132614,8.5577055 V 7.3438466 h 1.112705 1.112703 v 1.2138589 1.2138588 h -1.112703 -1.112705 z"
     id="path1665" /><path
     style="fill:#015657;fill-opacity:1;stroke:#015657;stroke-width:0.0404619;stroke-opacity:1"
     d="M 31.398485,16.994025 V 9.8120265 h 1.213858 1.213861 v 7.1819985 7.181999 h -1.213861 -1.213858 z"
     id="path1667" /><path
     style="fill:#015657;fill-opacity:1;stroke:#015657;stroke-width:0.0404619;stroke-opacity:1"
     d="m 29.132614,25.551731 v -1.335245 h 1.112705 1.112703 v 1.335245 1.335246 h -1.112703 -1.112705 z"
     id="path1669" /><path
     style="fill:#015657;fill-opacity:1;stroke:#015657;stroke-width:0.0404619;stroke-opacity:1"
     d="m 24.155793,28.019909 v -1.092472 h 2.46818 2.468179 v 1.092472 1.092475 h -2.468179 -2.46818 z"
     id="path1671" /><path
     style="fill:#015657;fill-opacity:1;stroke:#015657;stroke-width:0.0404619;stroke-opacity:1"
     d="m 9.5085616,30.386935 v -1.234091 h 7.3033844 7.303385 v 1.234091 1.234091 H 16.811946 9.5085616 Z"
     id="path1673" /><path
     style="fill:#015657;fill-opacity:1;stroke:#015657;stroke-width:0.0404619;stroke-opacity:1"
     d="m 4.8149737,28.019909 v -1.092472 h 2.3467941 2.3467938 v 1.092472 1.092475 H 7.1617678 4.8149737 Z"
     id="path1675" /><path
     style="fill:#015657;fill-opacity:1;stroke:#015657;stroke-width:0.0404619;stroke-opacity:1"
     d="m 2.5491038,25.551731 v -1.335245 h 1.1127041 1.1127039 v 1.335245 1.335246 H 3.6618079 2.5491038 Z"
     id="path1677" /><path
     style="fill:#015657;fill-opacity:1;stroke:#015657;stroke-width:0.0404619;stroke-opacity:1"
     d="M 12.219513,6.1906805 V 5.0779767 h 5.947909 5.947909 v 1.1127038 1.1127042 h -5.947909 -5.947909 z"
     id="path4371" /><path
     style="fill:#016b6d;fill-opacity:1;stroke:#016b6d;stroke-width:0.0404619;stroke-opacity:1"
     d="M 12.219513,6.1906805 V 5.0779767 h 5.947909 5.947909 v 1.1127038 1.1127042 h -5.947909 -5.947909 z"
     id="path5278" /><path
     style="fill:#016b6d;fill-opacity:1;stroke:#016b6d;stroke-width:0.0404619;stroke-opacity:1"
     d="M 24.155793,8.5577055 V 7.3438466 h 1.112704 1.112704 v 1.2138589 1.2138588 h -1.112704 -1.112704 z"
     id="path5349" /><path
     style="fill:#016b6d;fill-opacity:1;stroke:#016b6d;stroke-width:0.0404619;stroke-opacity:1"
     d="M 26.421663,8.5577055 V 7.3438466 h 1.335245 1.335244 v 1.2138589 1.2138588 h -1.335244 -1.335245 z"
     id="path5351" /><path
     style="fill:#016b6d;fill-opacity:1;stroke:#016b6d;stroke-width:0.0404619;stroke-opacity:1"
     d="M 29.132614,11.025885 V 9.8120265 h 1.112705 1.112703 v 1.2138585 1.213859 h -1.112703 -1.112705 z"
     id="path5353" /><path
     style="fill:#016b6d;fill-opacity:1;stroke:#016b6d;stroke-width:0.0404619;stroke-opacity:1"
     d="M 9.5490235,6.1906805 V 5.0779767 h 1.3150135 1.315014 V 6.1906805 7.3033847 H 10.864037 9.5490235 Z"
     id="path5355" /><path
     style="fill:#016b6d;fill-opacity:1;stroke:#016b6d;stroke-width:0.0404619;stroke-opacity:1"
     d="M 4.8149737,8.5577055 V 7.3438466 H 7.1617678 9.5085616 V 8.5577055 9.7715643 H 7.1617678 4.8149737 Z"
     id="path5357" /><path
     style="fill:#016b6d;fill-opacity:1;stroke:#016b6d;stroke-width:0.0404619;stroke-opacity:1"
     d="M 2.5491038,11.025885 V 9.8120265 h 1.1127041 1.1127039 v 1.2138585 1.213859 H 3.6618079 2.5491038 Z"
     id="path5359" /><path
     style="fill:#016b6d;fill-opacity:1;stroke:#016b6d;stroke-width:0.0404619;stroke-opacity:1"
     d="m 2.5491038,21.849461 v -2.326563 h 1.1127041 1.1127039 v 2.326563 2.326563 H 3.6618079 2.5491038 Z"
     id="path5361" /><path
     style="fill:#016b6d;fill-opacity:1;stroke:#016b6d;stroke-width:0.0404619;stroke-opacity:1"
     d="m 4.8149737,24.418796 v -2.46818 h 1.2138591 1.2138588 v 2.46818 2.468181 H 6.0288328 4.8149737 Z"
     id="path5363" /><path
     style="fill:#016b6d;fill-opacity:1;stroke:#016b6d;stroke-width:0.0404619;stroke-opacity:1"
     d="M 9.5490235,27.999679 V 26.886977 H 8.4160885 7.2831536 v -2.468181 -2.46818 h 1.092473 1.092473 v 1.132935 1.132935 h 6.0895254 6.089526 v 2.447949 2.447949 H 15.598087 9.5490235 Z"
     id="path5365" /><path
     style="fill:#016b6d;fill-opacity:1;stroke:#016b6d;stroke-width:0.0404619;stroke-opacity:1"
     d="m 21.687613,26.664435 v -2.447949 h 1.23409 1.23409 v -1.112704 -1.112704 h 2.48841 2.488411 v -1.23409 -1.23409 h 1.112705 1.112703 v 2.326563 2.326563 h -1.132935 -1.132935 v 1.355475 1.355478 h -2.488409 -2.488412 v 1.112702 1.112705 h -1.213859 -1.213859 z"
     id="path5367" /><path
     style="fill:#012f30;fill-opacity:1;stroke:#016b6d;stroke-width:0.0404619;stroke-opacity:1"
     d="m 9.5490235,20.676064 v -1.23409 H 7.1819986 4.8149737 V 18.187653 16.933332 H 3.6820387 2.5491038 v -2.326563 -2.326563 h 1.1329349 1.132935 v -1.23409 -1.2340895 h 2.3670249 2.3670249 v -1.2340899 -1.23409 h 7.2831535 7.283154 v 1.2138589 1.2138588 h -1.23409 -1.23409 v 1.2340897 1.23409 h -1.132935 -1.132935 v 1.254321 1.254321 h -2.46818 -2.46818 v 2.367025 2.367025 h 1.254321 1.254321 v -1.23409 -1.23409 h 2.367025 2.367025 v -1.132935 -1.132935 h 1.23409 1.23409 v -1.23409 -1.23409 h 1.132935 1.132935 v -1.23409 -1.2340895 h 1.335245 1.335244 v 1.2340895 1.23409 h 1.132935 1.132935 v 2.326563 2.326563 h -1.132935 -1.132935 v 1.254321 1.254321 h -2.488409 -2.488412 v 1.23409 1.23409 H 16.832177 9.5490235 Z"
     id="path5921" /><path
     style="fill:#016b6d;fill-opacity:1;stroke:#016b6d;stroke-width:0.0404619;stroke-opacity:1"
     d="m 14.485383,17.115411 v -2.326563 h 1.213859 1.213859 v 2.326563 2.326563 h -1.213859 -1.213859 z"
     id="path8131" /><path
     style="fill:#01d6d8;fill-opacity:1;stroke:#01d6d8;stroke-width:0.0404619;stroke-opacity:1"
     d="m 16.953563,15.881321 v -1.092473 h 1.23409 1.23409 v -1.254321 -1.254321 h 1.132935 1.132935 v -1.23409 -1.2340895 h 2.346794 2.346794 v 1.2138585 1.213859 h -1.132935 -1.132935 v 1.23409 1.23409 h -1.23409 -1.23409 v 1.132935 1.132935 h -2.346794 -2.346794 z"
     id="path8271" /></svg>
