<svg id="visual" viewBox="0 0 900 300" width="900" height="300" xmlns="http://www.w3.org/2000/svg" xmlns:xlink="http://www.w3.org/1999/xlink" version="1.1"><rect x="0" y="0" width="900" height="300" fill="#303030"></rect><path d="M0 224L15 221.2C30 218.3 60 212.7 90 211.7C120 210.7 150 214.3 180 220.5C210 226.7 240 235.3 270 232.5C300 229.7 330 215.3 360 205.8C390 196.3 420 191.7 450 197C480 202.3 510 217.7 540 219.8C570 222 600 211 630 210.3C660 209.7 690 219.3 720 228.5C750 237.7 780 246.3 810 249.3C840 252.3 870 249.7 885 248.3L900 247L900 301L885 301C870 301 840 301 810 301C780 301 750 301 720 301C690 301 660 301 630 301C600 301 570 301 540 301C510 301 480 301 450 301C420 301 390 301 360 301C330 301 300 301 270 301C240 301 210 301 180 301C150 301 120 301 90 301C60 301 30 301 15 301L0 301Z" fill="#005a5a" stroke-linecap="round" stroke-linejoin="miter"></path></svg>