<svg id="visual" viewBox="0 0 900 300" width="900" height="300" xmlns="http://www.w3.org/2000/svg" xmlns:xlink="http://www.w3.org/1999/xlink" version="1.1"><rect x="0" y="0" width="900" height="300" fill="#303030"></rect><path d="M0 81L15 81.2C30 81.3 60 81.7 90 84C120 86.3 150 90.7 180 95.2C210 99.7 240 104.3 270 106.8C300 109.3 330 109.7 360 114.3C390 119 420 128 450 125.3C480 122.7 510 108.3 540 104.3C570 100.3 600 106.7 630 113.5C660 120.3 690 127.7 720 123.8C750 120 780 105 810 105.5C840 106 870 122 885 130L900 138L900 0L885 0C870 0 840 0 810 0C780 0 750 0 720 0C690 0 660 0 630 0C600 0 570 0 540 0C510 0 480 0 450 0C420 0 390 0 360 0C330 0 300 0 270 0C240 0 210 0 180 0C150 0 120 0 90 0C60 0 30 0 15 0L0 0Z" fill="#063233"></path><path d="M0 31L15 32.5C30 34 60 37 90 37.5C120 38 150 36 180 35.5C210 35 240 36 270 44.5C300 53 330 69 360 70.5C390 72 420 59 450 52.3C480 45.7 510 45.3 540 48.7C570 52 600 59 630 58.8C660 58.7 690 51.3 720 49C750 46.7 780 49.3 810 55.5C840 61.7 870 71.3 885 76.2L900 81L900 0L885 0C870 0 840 0 810 0C780 0 750 0 720 0C690 0 660 0 630 0C600 0 570 0 540 0C510 0 480 0 450 0C420 0 390 0 360 0C330 0 300 0 270 0C240 0 210 0 180 0C150 0 120 0 90 0C60 0 30 0 15 0L0 0Z" fill="#015657"></path></svg>