<svg id="visual" viewBox="0 0 900 300" width="900" height="300" xmlns="http://www.w3.org/2000/svg" xmlns:xlink="http://www.w3.org/1999/xlink" version="1.1"><rect x="0" y="0" width="900" height="300" fill="#303030"></rect><path d="M0 239L15 230.8C30 222.7 60 206.3 90 204.7C120 203 150 216 180 213.3C210 210.7 240 192.3 270 190.8C300 189.3 330 204.7 360 214.3C390 224 420 228 450 220.3C480 212.7 510 193.3 540 191.7C570 190 600 206 630 203.5C660 201 690 180 720 169.5C750 159 780 159 810 164.2C840 169.3 870 179.7 885 184.8L900 190L900 0L885 0C870 0 840 0 810 0C780 0 750 0 720 0C690 0 660 0 630 0C600 0 570 0 540 0C510 0 480 0 450 0C420 0 390 0 360 0C330 0 300 0 270 0C240 0 210 0 180 0C150 0 120 0 90 0C60 0 30 0 15 0L0 0Z" fill="#303030"></path><path d="M0 166L15 162.5C30 159 60 152 90 154.7C120 157.3 150 169.7 180 164.7C210 159.7 240 137.3 270 135.5C300 133.7 330 152.3 360 161.5C390 170.7 420 170.3 450 165.5C480 160.7 510 151.3 540 143.5C570 135.7 600 129.3 630 124.7C660 120 690 117 720 126.3C750 135.7 780 157.3 810 158.2C840 159 870 139 885 129L900 119L900 0L885 0C870 0 840 0 810 0C780 0 750 0 720 0C690 0 660 0 630 0C600 0 570 0 540 0C510 0 480 0 450 0C420 0 390 0 360 0C330 0 300 0 270 0C240 0 210 0 180 0C150 0 120 0 90 0C60 0 30 0 15 0L0 0Z" fill="#2b3d3d"></path><path d="M0 129L15 121.8C30 114.7 60 100.3 90 95.2C120 90 150 94 180 94.3C210 94.7 240 91.3 270 91.7C300 92 330 96 360 103.2C390 110.3 420 120.7 450 126.7C480 132.7 510 134.3 540 129.8C570 125.3 600 114.7 630 106.2C660 97.7 690 91.3 720 86C750 80.7 780 76.3 810 73.2C840 70 870 68 885 67L900 66L900 0L885 0C870 0 840 0 810 0C780 0 750 0 720 0C690 0 660 0 630 0C600 0 570 0 540 0C510 0 480 0 450 0C420 0 390 0 360 0C330 0 300 0 270 0C240 0 210 0 180 0C150 0 120 0 90 0C60 0 30 0 15 0L0 0Z" fill="#20494a"></path><path d="M0 77L15 68.2C30 59.3 60 41.7 90 32.7C120 23.7 150 23.3 180 24.7C210 26 240 29 270 34.5C300 40 330 48 360 56C390 64 420 72 450 67C480 62 510 44 540 40C570 36 600 46 630 48.5C660 51 690 46 720 42.8C750 39.7 780 38.3 810 41C840 43.7 870 50.3 885 53.7L900 57L900 0L885 0C870 0 840 0 810 0C780 0 750 0 720 0C690 0 660 0 630 0C600 0 570 0 540 0C510 0 480 0 450 0C420 0 390 0 360 0C330 0 300 0 270 0C240 0 210 0 180 0C150 0 120 0 90 0C60 0 30 0 15 0L0 0Z" fill="#015657"></path></svg>