<svg id="visual" viewBox="0 0 900 300" width="900" height="300" xmlns="http://www.w3.org/2000/svg" xmlns:xlink="http://www.w3.org/1999/xlink" version="1.1"><rect x="0" y="0" width="900" height="300" fill="#303030"></rect><path d="M0 219L15 218.2C30 217.3 60 215.7 90 210.2C120 204.7 150 195.3 180 199.3C210 203.3 240 220.7 270 227.7C300 234.7 330 231.3 360 227.3C390 223.3 420 218.7 450 209C480 199.3 510 184.7 540 186.2C570 187.7 600 205.3 630 211.8C660 218.3 690 213.7 720 204.7C750 195.7 780 182.3 810 173.7C840 165 870 161 885 159L900 157L900 0L885 0C870 0 840 0 810 0C780 0 750 0 720 0C690 0 660 0 630 0C600 0 570 0 540 0C510 0 480 0 450 0C420 0 390 0 360 0C330 0 300 0 270 0C240 0 210 0 180 0C150 0 120 0 90 0C60 0 30 0 15 0L0 0Z" fill="#303030"></path><path d="M0 150L15 156.5C30 163 60 176 90 178.5C120 181 150 173 180 167.5C210 162 240 159 270 150.2C300 141.3 330 126.7 360 131.3C390 136 420 160 450 167.7C480 175.3 510 166.7 540 154.7C570 142.7 600 127.3 630 127.3C660 127.3 690 142.7 720 150.7C750 158.7 780 159.3 810 154.5C840 149.7 870 139.3 885 134.2L900 129L900 0L885 0C870 0 840 0 810 0C780 0 750 0 720 0C690 0 660 0 630 0C600 0 570 0 540 0C510 0 480 0 450 0C420 0 390 0 360 0C330 0 300 0 270 0C240 0 210 0 180 0C150 0 120 0 90 0C60 0 30 0 15 0L0 0Z" fill="#2b3d3d"></path><path d="M0 105L15 102.8C30 100.7 60 96.3 90 90.8C120 85.3 150 78.7 180 77.7C210 76.7 240 81.3 270 90.2C300 99 330 112 360 109C390 106 420 87 450 77.2C480 67.3 510 66.7 540 70.5C570 74.3 600 82.7 630 83.3C660 84 690 77 720 73.8C750 70.7 780 71.3 810 77.5C840 83.7 870 95.3 885 101.2L900 107L900 0L885 0C870 0 840 0 810 0C780 0 750 0 720 0C690 0 660 0 630 0C600 0 570 0 540 0C510 0 480 0 450 0C420 0 390 0 360 0C330 0 300 0 270 0C240 0 210 0 180 0C150 0 120 0 90 0C60 0 30 0 15 0L0 0Z" fill="#20494a"></path><path d="M0 21L15 23.2C30 25.3 60 29.7 90 30.2C120 30.7 150 27.3 180 31.8C210 36.3 240 48.7 270 56.8C300 65 330 69 360 70C390 71 420 69 450 60.5C480 52 510 37 540 37.8C570 38.7 600 55.3 630 60.8C660 66.3 690 60.7 720 54.7C750 48.7 780 42.3 810 42.3C840 42.3 870 48.7 885 51.8L900 55L900 0L885 0C870 0 840 0 810 0C780 0 750 0 720 0C690 0 660 0 630 0C600 0 570 0 540 0C510 0 480 0 450 0C420 0 390 0 360 0C330 0 300 0 270 0C240 0 210 0 180 0C150 0 120 0 90 0C60 0 30 0 15 0L0 0Z" fill="#015657"></path></svg>