<svg id="visual" viewBox="0 0 900 300" width="900" height="300" xmlns="http://www.w3.org/2000/svg" xmlns:xlink="http://www.w3.org/1999/xlink" version="1.1"><rect x="0" y="0" width="900" height="300" fill="#303030"></rect><path d="M0 188L15 183.7C30 179.3 60 170.7 90 175.8C120 181 150 200 180 207.7C210 215.3 240 211.7 270 202.3C300 193 330 178 360 179.8C390 181.7 420 200.3 450 200.5C480 200.7 510 182.3 540 179C570 175.7 600 187.3 630 196.2C660 205 690 211 720 211C750 211 780 205 810 197.2C840 189.3 870 179.7 885 174.8L900 170L900 0L885 0C870 0 840 0 810 0C780 0 750 0 720 0C690 0 660 0 630 0C600 0 570 0 540 0C510 0 480 0 450 0C420 0 390 0 360 0C330 0 300 0 270 0C240 0 210 0 180 0C150 0 120 0 90 0C60 0 30 0 15 0L0 0Z" fill="#303030"></path><path d="M0 138L15 142.7C30 147.3 60 156.7 90 152.5C120 148.3 150 130.7 180 125.5C210 120.3 240 127.7 270 132.5C300 137.3 330 139.7 360 146C390 152.3 420 162.7 450 159.7C480 156.7 510 140.3 540 141.5C570 142.7 600 161.3 630 160.7C660 160 690 140 720 141.2C750 142.3 780 164.7 810 171.2C840 177.7 870 168.3 885 163.7L900 159L900 0L885 0C870 0 840 0 810 0C780 0 750 0 720 0C690 0 660 0 630 0C600 0 570 0 540 0C510 0 480 0 450 0C420 0 390 0 360 0C330 0 300 0 270 0C240 0 210 0 180 0C150 0 120 0 90 0C60 0 30 0 15 0L0 0Z" fill="#2b3d3d"></path><path d="M0 73L15 74.7C30 76.3 60 79.7 90 81.8C120 84 150 85 180 86.2C210 87.3 240 88.7 270 94.3C300 100 330 110 360 106.7C390 103.3 420 86.7 450 82.3C480 78 510 86 540 92.2C570 98.3 600 102.7 630 109C660 115.3 690 123.7 720 127.7C750 131.7 780 131.3 810 124.2C840 117 870 103 885 96L900 89L900 0L885 0C870 0 840 0 810 0C780 0 750 0 720 0C690 0 660 0 630 0C600 0 570 0 540 0C510 0 480 0 450 0C420 0 390 0 360 0C330 0 300 0 270 0C240 0 210 0 180 0C150 0 120 0 90 0C60 0 30 0 15 0L0 0Z" fill="#20494a"></path><path d="M0 57L15 60.5C30 64 60 71 90 73.7C120 76.3 150 74.7 180 72.7C210 70.7 240 68.3 270 67.3C300 66.3 330 66.7 360 59.8C390 53 420 39 450 34.5C480 30 510 35 540 35C570 35 600 30 630 31.8C660 33.7 690 42.3 720 47.5C750 52.7 780 54.3 810 58.8C840 63.3 870 70.7 885 74.3L900 78L900 0L885 0C870 0 840 0 810 0C780 0 750 0 720 0C690 0 660 0 630 0C600 0 570 0 540 0C510 0 480 0 450 0C420 0 390 0 360 0C330 0 300 0 270 0C240 0 210 0 180 0C150 0 120 0 90 0C60 0 30 0 15 0L0 0Z" fill="#015657"></path></svg>