<svg id="visual" viewBox="0 0 900 300" width="900" height="300" xmlns="http://www.w3.org/2000/svg" xmlns:xlink="http://www.w3.org/1999/xlink" version="1.1"><rect x="0" y="0" width="900" height="300" fill="#303030"></rect><path d="M0 177L15 177C30 177 60 177 90 184.2C120 191.3 150 205.7 180 212.8C210 220 240 220 270 210.2C300 200.3 330 180.7 360 173.8C390 167 420 173 450 181.2C480 189.3 510 199.7 540 208.2C570 216.7 600 223.3 630 218C660 212.7 690 195.3 720 191.7C750 188 780 198 810 205.8C840 213.7 870 219.3 885 222.2L900 225L900 0L885 0C870 0 840 0 810 0C780 0 750 0 720 0C690 0 660 0 630 0C600 0 570 0 540 0C510 0 480 0 450 0C420 0 390 0 360 0C330 0 300 0 270 0C240 0 210 0 180 0C150 0 120 0 90 0C60 0 30 0 15 0L0 0Z" fill="#303030"></path><path d="M0 174L15 173.5C30 173 60 172 90 170.5C120 169 150 167 180 158.8C210 150.7 240 136.3 270 138C300 139.7 330 157.3 360 163.8C390 170.3 420 165.7 450 157.5C480 149.3 510 137.7 540 131.7C570 125.7 600 125.3 630 132.7C660 140 690 155 720 160.3C750 165.7 780 161.3 810 163C840 164.7 870 172.3 885 176.2L900 180L900 0L885 0C870 0 840 0 810 0C780 0 750 0 720 0C690 0 660 0 630 0C600 0 570 0 540 0C510 0 480 0 450 0C420 0 390 0 360 0C330 0 300 0 270 0C240 0 210 0 180 0C150 0 120 0 90 0C60 0 30 0 15 0L0 0Z" fill="#2b3d3d"></path><path d="M0 100L15 104.8C30 109.7 60 119.3 90 119.8C120 120.3 150 111.7 180 106.8C210 102 240 101 270 95.3C300 89.7 330 79.3 360 81.7C390 84 420 99 450 103.3C480 107.7 510 101.3 540 96.8C570 92.3 600 89.7 630 91.5C660 93.3 690 99.7 720 106.8C750 114 780 122 810 124C840 126 870 122 885 120L900 118L900 0L885 0C870 0 840 0 810 0C780 0 750 0 720 0C690 0 660 0 630 0C600 0 570 0 540 0C510 0 480 0 450 0C420 0 390 0 360 0C330 0 300 0 270 0C240 0 210 0 180 0C150 0 120 0 90 0C60 0 30 0 15 0L0 0Z" fill="#20494a"></path><path d="M0 78L15 74.5C30 71 60 64 90 56.7C120 49.3 150 41.7 180 41.5C210 41.3 240 48.7 270 57.2C300 65.7 330 75.3 360 70C390 64.7 420 44.3 450 41.2C480 38 510 52 540 57.7C570 63.3 600 60.7 630 60C660 59.3 690 60.7 720 59.5C750 58.3 780 54.7 810 53C840 51.3 870 51.7 885 51.8L900 52L900 0L885 0C870 0 840 0 810 0C780 0 750 0 720 0C690 0 660 0 630 0C600 0 570 0 540 0C510 0 480 0 450 0C420 0 390 0 360 0C330 0 300 0 270 0C240 0 210 0 180 0C150 0 120 0 90 0C60 0 30 0 15 0L0 0Z" fill="#015657"></path></svg>