<svg id="visual" viewBox="0 0 900 300" width="900" height="300" xmlns="http://www.w3.org/2000/svg" xmlns:xlink="http://www.w3.org/1999/xlink" version="1.1"><rect x="0" y="0" width="900" height="300" fill="#015657"></rect><path d="M0 169L15 180.8C30 192.7 60 216.3 90 225.5C120 234.7 150 229.3 180 217.2C210 205 240 186 270 178.2C300 170.3 330 173.7 360 175.2C390 176.7 420 176.3 450 179.2C480 182 510 188 540 187.3C570 186.7 600 179.3 630 182.5C660 185.7 690 199.3 720 207.3C750 215.3 780 217.7 810 218.8C840 220 870 220 885 220L900 220L900 0L885 0C870 0 840 0 810 0C780 0 750 0 720 0C690 0 660 0 630 0C600 0 570 0 540 0C510 0 480 0 450 0C420 0 390 0 360 0C330 0 300 0 270 0C240 0 210 0 180 0C150 0 120 0 90 0C60 0 30 0 15 0L0 0Z" fill="#015657"></path><path d="M0 187L15 184C30 181 60 175 90 164.5C120 154 150 139 180 141.5C210 144 240 164 270 161.8C300 159.7 330 135.3 360 125.3C390 115.3 420 119.7 450 123.8C480 128 510 132 540 131.7C570 131.3 600 126.7 630 130.2C660 133.7 690 145.3 720 153.2C750 161 780 165 810 167.7C840 170.3 870 171.7 885 172.3L900 173L900 0L885 0C870 0 840 0 810 0C780 0 750 0 720 0C690 0 660 0 630 0C600 0 570 0 540 0C510 0 480 0 450 0C420 0 390 0 360 0C330 0 300 0 270 0C240 0 210 0 180 0C150 0 120 0 90 0C60 0 30 0 15 0L0 0Z" fill="#20494a"></path><path d="M0 128L15 119.7C30 111.3 60 94.7 90 94C120 93.3 150 108.7 180 108.2C210 107.7 240 91.3 270 85.7C300 80 330 85 360 85.7C390 86.3 420 82.7 450 83C480 83.3 510 87.7 540 90C570 92.3 600 92.7 630 92.7C660 92.7 690 92.3 720 95.2C750 98 780 104 810 110C840 116 870 122 885 125L900 128L900 0L885 0C870 0 840 0 810 0C780 0 750 0 720 0C690 0 660 0 630 0C600 0 570 0 540 0C510 0 480 0 450 0C420 0 390 0 360 0C330 0 300 0 270 0C240 0 210 0 180 0C150 0 120 0 90 0C60 0 30 0 15 0L0 0Z" fill="#2b3d3d"></path><path d="M0 30L15 33C30 36 60 42 90 43C120 44 150 40 180 36.7C210 33.3 240 30.7 270 36.3C300 42 330 56 360 64.8C390 73.7 420 77.3 450 70.5C480 63.7 510 46.3 540 41C570 35.7 600 42.3 630 50.3C660 58.3 690 67.7 720 66.5C750 65.3 780 53.7 810 54.5C840 55.3 870 68.7 885 75.3L900 82L900 0L885 0C870 0 840 0 810 0C780 0 750 0 720 0C690 0 660 0 630 0C600 0 570 0 540 0C510 0 480 0 450 0C420 0 390 0 360 0C330 0 300 0 270 0C240 0 210 0 180 0C150 0 120 0 90 0C60 0 30 0 15 0L0 0Z" fill="#303030"></path></svg>