<svg id="visual" viewBox="0 0 900 300" width="900" height="300" xmlns="http://www.w3.org/2000/svg" xmlns:xlink="http://www.w3.org/1999/xlink" version="1.1"><rect x="0" y="0" width="900" height="300" fill="#015657"></rect><path d="M0 165L15 168.7C30 172.3 60 179.7 90 179.7C120 179.7 150 172.3 180 176.7C210 181 240 197 270 197.8C300 198.7 330 184.3 360 181.3C390 178.3 420 186.7 450 185.5C480 184.3 510 173.7 540 176.8C570 180 600 197 630 198.7C660 200.3 690 186.7 720 186C750 185.3 780 197.7 810 204.7C840 211.7 870 213.3 885 214.2L900 215L900 0L885 0C870 0 840 0 810 0C780 0 750 0 720 0C690 0 660 0 630 0C600 0 570 0 540 0C510 0 480 0 450 0C420 0 390 0 360 0C330 0 300 0 270 0C240 0 210 0 180 0C150 0 120 0 90 0C60 0 30 0 15 0L0 0Z" fill="#015657"></path><path d="M0 185L15 182.7C30 180.3 60 175.7 90 164.8C120 154 150 137 180 136.3C210 135.7 240 151.3 270 152.7C300 154 330 141 360 144.5C390 148 420 168 450 168.8C480 169.7 510 151.3 540 143.3C570 135.3 600 137.7 630 134.5C660 131.3 690 122.7 720 130.7C750 138.7 780 163.3 810 163.2C840 163 870 138 885 125.5L900 113L900 0L885 0C870 0 840 0 810 0C780 0 750 0 720 0C690 0 660 0 630 0C600 0 570 0 540 0C510 0 480 0 450 0C420 0 390 0 360 0C330 0 300 0 270 0C240 0 210 0 180 0C150 0 120 0 90 0C60 0 30 0 15 0L0 0Z" fill="#20494a"></path><path d="M0 117L15 111.2C30 105.3 60 93.7 90 92.2C120 90.7 150 99.3 180 104C210 108.7 240 109.3 270 108.8C300 108.3 330 106.7 360 107.8C390 109 420 113 450 107.5C480 102 510 87 540 84C570 81 600 90 630 92.2C660 94.3 690 89.7 720 88.2C750 86.7 780 88.3 810 90.8C840 93.3 870 96.7 885 98.3L900 100L900 0L885 0C870 0 840 0 810 0C780 0 750 0 720 0C690 0 660 0 630 0C600 0 570 0 540 0C510 0 480 0 450 0C420 0 390 0 360 0C330 0 300 0 270 0C240 0 210 0 180 0C150 0 120 0 90 0C60 0 30 0 15 0L0 0Z" fill="#2b3d3d"></path><path d="M0 79L15 75.5C30 72 60 65 90 64.8C120 64.7 150 71.3 180 65.3C210 59.3 240 40.7 270 34.7C300 28.7 330 35.3 360 40.7C390 46 420 50 450 53.2C480 56.3 510 58.7 540 53.5C570 48.3 600 35.7 630 32.5C660 29.3 690 35.7 720 39.7C750 43.7 780 45.3 810 45.7C840 46 870 45 885 44.5L900 44L900 0L885 0C870 0 840 0 810 0C780 0 750 0 720 0C690 0 660 0 630 0C600 0 570 0 540 0C510 0 480 0 450 0C420 0 390 0 360 0C330 0 300 0 270 0C240 0 210 0 180 0C150 0 120 0 90 0C60 0 30 0 15 0L0 0Z" fill="#303030"></path></svg>