<svg id="visual" viewBox="0 0 900 300" width="900" height="300" xmlns="http://www.w3.org/2000/svg" xmlns:xlink="http://www.w3.org/1999/xlink" version="1.1"><rect x="0" y="0" width="900" height="300" fill="#015657"></rect><path d="M0 158L15 169.8C30 181.7 60 205.3 90 217C120 228.7 150 228.3 180 219.8C210 211.3 240 194.7 270 187.5C300 180.3 330 182.7 360 190C390 197.3 420 209.7 450 211C480 212.3 510 202.7 540 202C570 201.3 600 209.7 630 216C660 222.3 690 226.7 720 217.8C750 209 780 187 810 179.7C840 172.3 870 179.7 885 183.3L900 187L900 0L885 0C870 0 840 0 810 0C780 0 750 0 720 0C690 0 660 0 630 0C600 0 570 0 540 0C510 0 480 0 450 0C420 0 390 0 360 0C330 0 300 0 270 0C240 0 210 0 180 0C150 0 120 0 90 0C60 0 30 0 15 0L0 0Z" fill="#015657"></path><path d="M0 155L15 157.3C30 159.7 60 164.3 90 160.8C120 157.3 150 145.7 180 146.5C210 147.3 240 160.7 270 161.5C300 162.3 330 150.7 360 147.3C390 144 420 149 450 152C480 155 510 156 540 155.3C570 154.7 600 152.3 630 145.5C660 138.7 690 127.3 720 133.8C750 140.3 780 164.7 810 167.5C840 170.3 870 151.7 885 142.3L900 133L900 0L885 0C870 0 840 0 810 0C780 0 750 0 720 0C690 0 660 0 630 0C600 0 570 0 540 0C510 0 480 0 450 0C420 0 390 0 360 0C330 0 300 0 270 0C240 0 210 0 180 0C150 0 120 0 90 0C60 0 30 0 15 0L0 0Z" fill="#20494a"></path><path d="M0 98L15 99.8C30 101.7 60 105.3 90 110.5C120 115.7 150 122.3 180 126C210 129.7 240 130.3 270 126.7C300 123 330 115 360 114.7C390 114.3 420 121.7 450 119C480 116.3 510 103.7 540 104.3C570 105 600 119 630 120.2C660 121.3 690 109.7 720 101.3C750 93 780 88 810 91.2C840 94.3 870 105.7 885 111.3L900 117L900 0L885 0C870 0 840 0 810 0C780 0 750 0 720 0C690 0 660 0 630 0C600 0 570 0 540 0C510 0 480 0 450 0C420 0 390 0 360 0C330 0 300 0 270 0C240 0 210 0 180 0C150 0 120 0 90 0C60 0 30 0 15 0L0 0Z" fill="#2b3d3d"></path><path d="M0 53L15 51.7C30 50.3 60 47.7 90 42.7C120 37.7 150 30.3 180 35.3C210 40.3 240 57.7 270 66C300 74.3 330 73.7 360 73.2C390 72.7 420 72.3 450 70.2C480 68 510 64 540 63.8C570 63.7 600 67.3 630 70.3C660 73.3 690 75.7 720 73.8C750 72 780 66 810 62C840 58 870 56 885 55L900 54L900 0L885 0C870 0 840 0 810 0C780 0 750 0 720 0C690 0 660 0 630 0C600 0 570 0 540 0C510 0 480 0 450 0C420 0 390 0 360 0C330 0 300 0 270 0C240 0 210 0 180 0C150 0 120 0 90 0C60 0 30 0 15 0L0 0Z" fill="#303030"></path></svg>