<svg id="visual" viewBox="0 0 900 300" width="900" height="300" xmlns="http://www.w3.org/2000/svg" xmlns:xlink="http://www.w3.org/1999/xlink" version="1.1"><rect x="0" y="0" width="900" height="300" fill="#015657"></rect><path d="M0 194L15 191.8C30 189.7 60 185.3 90 183.5C120 181.7 150 182.3 180 186.8C210 191.3 240 199.7 270 204.7C300 209.7 330 211.3 360 214.7C390 218 420 223 450 225.7C480 228.3 510 228.7 540 217.8C570 207 600 185 630 177.5C660 170 690 177 720 179.8C750 182.7 780 181.3 810 189.2C840 197 870 214 885 222.5L900 231L900 0L885 0C870 0 840 0 810 0C780 0 750 0 720 0C690 0 660 0 630 0C600 0 570 0 540 0C510 0 480 0 450 0C420 0 390 0 360 0C330 0 300 0 270 0C240 0 210 0 180 0C150 0 120 0 90 0C60 0 30 0 15 0L0 0Z" fill="#015657"></path><path d="M0 165L15 168.8C30 172.7 60 180.3 90 179.5C120 178.7 150 169.3 180 167.5C210 165.7 240 171.3 270 163.3C300 155.3 330 133.7 360 129.5C390 125.3 420 138.7 450 144.3C480 150 510 148 540 150.5C570 153 600 160 630 157.8C660 155.7 690 144.3 720 145.5C750 146.7 780 160.3 810 168.7C840 177 870 180 885 181.5L900 183L900 0L885 0C870 0 840 0 810 0C780 0 750 0 720 0C690 0 660 0 630 0C600 0 570 0 540 0C510 0 480 0 450 0C420 0 390 0 360 0C330 0 300 0 270 0C240 0 210 0 180 0C150 0 120 0 90 0C60 0 30 0 15 0L0 0Z" fill="#20494a"></path><path d="M0 101L15 98.8C30 96.7 60 92.3 90 94.3C120 96.3 150 104.7 180 105.8C210 107 240 101 270 98.2C300 95.3 330 95.7 360 92.3C390 89 420 82 450 78.5C480 75 510 75 540 81.7C570 88.3 600 101.7 630 111.2C660 120.7 690 126.3 720 118.3C750 110.3 780 88.7 810 81.3C840 74 870 81 885 84.5L900 88L900 0L885 0C870 0 840 0 810 0C780 0 750 0 720 0C690 0 660 0 630 0C600 0 570 0 540 0C510 0 480 0 450 0C420 0 390 0 360 0C330 0 300 0 270 0C240 0 210 0 180 0C150 0 120 0 90 0C60 0 30 0 15 0L0 0Z" fill="#2b3d3d"></path><path d="M0 21L15 24.3C30 27.7 60 34.3 90 40.3C120 46.3 150 51.7 180 49C210 46.3 240 35.7 270 33.3C300 31 330 37 360 40.8C390 44.7 420 46.3 450 50.3C480 54.3 510 60.7 540 57.8C570 55 600 43 630 40C660 37 690 43 720 41.5C750 40 780 31 810 33.7C840 36.3 870 50.7 885 57.8L900 65L900 0L885 0C870 0 840 0 810 0C780 0 750 0 720 0C690 0 660 0 630 0C600 0 570 0 540 0C510 0 480 0 450 0C420 0 390 0 360 0C330 0 300 0 270 0C240 0 210 0 180 0C150 0 120 0 90 0C60 0 30 0 15 0L0 0Z" fill="#303030"></path></svg>